<svg width="20" height="20" viewBox="0 0 20 20" fill="none" xmlns="http://www.w3.org/2000/svg">
<g id="linkedin / 24 / Outline">
<path id="Vector" d="M17.0409 1.87207H2.95909C2.37727 1.87207 1.87207 2.37727 1.87207 2.95909V17.0409C1.87207 17.6227 2.37727 18.1279 2.95909 18.1279H17.0409C17.6227 18.1279 18.1279 17.6227 18.1279 17.0409V2.95909C18.1279 2.37727 17.6227 1.87207 17.0409 1.87207ZM6.81818 15.4545H4.54545V7.72727H6.81818V15.4545ZM5.68182 6.70455C5.02273 6.70455 4.54545 6.22727 4.54545 5.56818C4.54545 4.90909 5.02273 4.43182 5.68182 4.43182C6.34091 4.43182 6.81818 4.90909 6.81818 5.56818C6.81818 6.22727 6.34091 6.70455 5.68182 6.70455ZM15.4545 15.4545H13.1818V11.5909C13.1818 10.7727 13.1818 9.75 12.0455 9.75C10.9091 9.75 10.7045 10.6136 10.7045 11.5227V15.4545H8.43182V7.72727H10.5909V8.75H10.6136C10.9091 8.18182 11.6364 7.5 12.7273 7.5C15.0227 7.5 15.4545 8.93182 15.4545 10.7727V15.4545Z" fill="white"/>
</g>
</svg>